<svg viewBox="0 0 24 24" xmlns="http://www.w3.org/2000/svg"><path d="M7.4 2.826a8.11 8.11 0 0 1 6.975 11.704l2.315-.684c1.679-.497 3.043-2.437 3.522-4.488.512-2.167.27-4.105-.863-5.458l-2.682-2.682a4.418 4.418 0 0 0-6.944-.235c-.517.36-.924.782-1.242 1.25-.166.25-.287.405-.375.471-.308.272-.445.372-.454.423-.051.307.041.571.319.782.254.2.608.284 1.022.284.677 0 1.205-.447 1.649-1.32.396-.853.56-1.636.471-2.126-.066-.36-.091-.673-.078-.917-.007-.125-.03-.237-.07-.34-.143-.34-.446-.423-.679-.143-.379.355-.71.725-.986 1.069zM15.035 13.59a6.413 6.413 0 0 1-4.11-1.726l-1.581.016-1.627.512-1.328-.613-.341-.764c-.396-.778-.637-1.55-.676-2.137.017-.267.12-.57.284-.816.177-.255.449-.541.766-.816.321-.275.576-.459.418-.192-.243.445-.564.964-.919 1.47-.459.83-.58 1.668-.295 2.487.333.945 1.015 1.65 1.748 1.974l.311.143.032.035c-.665-.085-1.134-.02-1.398-.02-.93 0-1.774-.524-2.425-1.296-.71-.851-1.047-1.733-1.047-2.695 0-.894.285-1.667.845-2.304.516-.617 1.266-.934 2.132-.934.521 0 .956.138 1.296.415.396.315.646.791.755 1.288.246 1.107-.182 2.593-1.057 3.551-.12.113-.202.219-.242.244z" fill="#40E37F"/></svg>
