<svg viewBox="0 0 24 24" xmlns="http://www.w3.org/2000/svg"><path d="M12 2C6.48 2 2 6.48 2 12s4.48 10 10 10 10-4.48 10-10S17.52 2 12 2zM4.03 12.032C4.028 7.545 7.548 4.024 12 4.024s7.972 3.518 7.972 7.996h-3.271c-1.311-.012-2.382.662-2.73 3.694 0 0-.871.08-1.154.052-.273-.03-.494-.005-.76-.525-.28-.553-.267-1.099-.07-1.323.082-.095.152-.158.203-.178.079-.027.12-.018.203.019.152.068.2.145.214.026.059.059.087.2.229.214.026.059.087.087.273.017.12-.059.596-.156.706-.706.12-.456-.062-.848-.562-.984-.177-1.287-.062-1.732.182-.387.208-.495.455-.268.773.265.326.52.587.734.696.224.132.464.231.734.275.27.047.55.047.785-.017-.817-.325-1.647-.499-2.37-.499-1.095 0-1.96.502-2.468 1.008-.623.591-.988 1.29-.988 2.064 0 1.059.609 1.748 1.438 2.106.614.261 1.373.498 2.194.498.521 0 .956-.138 1.296-.384-.715.53-1.552.785-2.512.785-1.449 0-2.703-.604-3.555-1.401-.912-.867-1.385-2.028-1.385-3.266 0-1.367.609-2.497 1.748-3.439 1.033-.861 2.424-1.453 3.96-1.453-2.172 0-4.166.994-5.495 2.385z" fill="#757575"/></svg>
