<svg viewBox="0 0 24 24" xmlns="http://www.w3.org/2000/svg"><path d="M19 2h-2V.49c.002-.797-.648-1.448-1.446-1.448-.797 0-1.448.65-1.446 1.446V2H5V1.49c-.002-.797-.648-1.448-1.446-1.448-.797 0-1.448.65-1.446 1.446V2H1V13.996h-.027a2 2 0 0 0 2.027 2.027H22v-14zM15 11h-5.792c-.552 0-1 .448-1 1v4.016c0 .552.448 1 1 1h5.792c.552 0 1-.448 1.015-.984l-.005-.002v-4.016c0-.552-.448-1-1-1z" fill="#466025"/><path d="M0 15.996h24V24.004H0V11.996z" fill="#364142"/><path d="M0 12.004h24V14.004H0V12.004z" fill="#485457"/></svg>
