<svg viewBox="0 0 24 24" xmlns="http://www.w3.org/2000/svg"><path d="M7 9h10.001v2.046H7zm0-4.142h2.036v3.019h7.92V5h-7.92-1.926v3.551l-.034.036c-.351.346-.508.681-.665.895-.346.406-.561.616-.651.679-.445.316-.747.454-.948.454-.202 0-.561-.096-1.072-.3-.296-.11-.453-.207-.453-.207-.017-.072-.032-.172-.043-.299l-.014-.109c-.006-.207-.044-.57-.127-.57 0-.614.192-1.104.579-1.477.263-.255.625-.529 1.083-.825l.335-.209.192-.127c.471-.308.679-.482.596-.53-.116-.069-.359.03-.608.328l-.026-.011c-.107-.049-.211-.092-.312-.119-.291-.078-.537-.08-.742-.08zm17.983-6.858.001 15.352-3.939 3.939h-14.062c-2.757 0-5-2.243-5-5s2.243-5 5-5h12c2.757 0 5 2.243 5 5zm-4.953 2.992-6.189 4.126c-.667.374-1.371.583-2.146.583-.774 0-1.448-.208-2.12-.583l-5.609-2.939-.055-.027c-.097-.048-.151-.028-.151.057v6.162a1.058 1.058 0 0 0 1.058 1.058h16.926a1.058 1.058 0 0 0 1.058-1.058v-6.614c0-.085-.093-.144-.212-.092l-5.506 2.067zm6.643-3.993v-4.007c0-.76-.622-1.375-1.383-1.375h-8.427c-.76 0-1.375.615-1.375 1.375v4.007l-1.369-.853-5.363-3.444c-.711-.457-1.048-.566-1.163-.256-.161.422.408 1.538.68 1.683l7.936 4.629a1.647 1.647 0 0 0 1.608.004l7.328-4.307c0-.005.035-.01.092-.012.192-.091.291-.093.423-.093.072 0 .12-.01.227-.114.23-.256.051-.488-.428-.55z" fill="#FFD50"/></svg>
