<svg viewBox="0 0 24 24" xmlns="http://www.w3.org/2000/svg"><path d="M12 2c5.523 0 10 4.477 10 10s-4.477 10-10 10-10-4.477-10-10 4.477-10 10-10zm0 3.002c-4.088 0-7.385 3.297-7.385 7.385s3.297 7.385 7.385 7.385 7.385-3.297 7.385-7.385-3.297-7.385-7.385-7.385zm0-.0001l-1.583 2.847c1.871.663 3.29 1.917 3.475 3.573l2.854-1.68c-.505-2.516-2.45-4.461-4.797-4.74zm2.854 13.835l-1.585.861c-.378.206-.842.425-1.287.656-.365.187-.755.356-1.106.493-.449.192-.809.346-1.117.466-.351.134-.545.203-.368.025-.07-.126-.177-.252-.32-.387-.307-.284-.593-.604-.804-.803l-.145-.212c-.166-.24-.354-.459-.573-.651-.432-.366-.889-.643-1.33-.862l-.516-.248c-.445-.208-.781-.293-.87-.346-.062-.038-.141-.068-.23-.082-.32-.055-.514-.065-.667-.036-.412.082-.595.377-.566.68.042.447.547.978 1.117 1.437l.114.105.065.065c.326.325.702.646 1.158.956.576.397 1.288.722 1.989.973l.274.096c.024.008.117.032.266.066.524.125.751.162.868.169.14.013.247.015.323-.003.341-.082.609-.19.766-.298.279-.198.679-.429 1.156-.747.469-.311.928-.678 1.158-.951.12-.133.247-.219.242-.244zM7.615 4.638l.861 1.583c-.663.816-1.908 1.761-2.604 2.364l-1.676-2.854c.417-.742 1.077-1.473 1.905-2.332h1.515z" fill="#4C76A3"/></svg>
